<svg class="logo" role="img" aria-label="cc-profiles" viewBox="0 0 126 84" shape-rendering="crispEdges"><g class="m-back"><g transform="translate(42 -14)"><g class="lg-e"><rect class="lg-ant" x="42" y="14" width="7" height="7"/><rect class="lg-ant" x="35" y="21" width="7" height="7"/><rect x="14" y="28" width="56" height="7"/><rect x="7" y="35" width="70" height="7"/><rect x="7" y="42" width="14" height="7"/><rect x="28" y="42" width="28" height="7"/><rect x="63" y="42" width="14" height="7"/><rect x="7" y="49" width="14" height="7"/><rect x="28" y="49" width="28" height="7"/><rect x="63" y="49" width="14" height="7"/><rect x="7" y="56" width="70" height="7"/><rect x="7" y="63" width="70" height="7"/><rect x="7" y="70" width="70" height="7"/><rect x="14" y="77" width="14" height="7"/><rect x="56" y="77" width="14" height="7"/><rect x="21" y="42" width="7" height="14"/><rect x="56" y="42" width="7" height="14"/></g><rect class="lg-back lg-ant" x="42" y="14" width="7" height="7"/><rect class="lg-back lg-ant" x="35" y="21" width="7" height="7"/><rect class="lg-back" x="14" y="28" width="56" height="7"/><rect class="lg-back" x="7" y="35" width="70" height="7"/><rect class="lg-back" x="7" y="42" width="14" height="7"/><rect class="lg-back" x="28" y="42" width="28" height="7"/><rect class="lg-back" x="63" y="42" width="14" height="7"/><rect class="lg-back" x="7" y="49" width="14" height="7"/><rect class="lg-back" x="28" y="49" width="28" height="7"/><rect class="lg-back" x="63" y="49" width="14" height="7"/><rect class="lg-back" x="7" y="56" width="70" height="7"/><rect class="lg-back" x="7" y="63" width="70" height="7"/><rect class="lg-back" x="7" y="70" width="70" height="7"/><rect class="lg-back" x="14" y="77" width="14" height="7"/><rect class="lg-back" x="56" y="77" width="14" height="7"/><rect class="lg-back" x="21" y="42" width="7" height="14"/><rect class="lg-back" x="56" y="42" width="7" height="14"/><rect class="lg-eye" x="21" y="42" width="7" height="7"/><rect class="lg-eye" x="56" y="42" width="7" height="7"/><rect class="lg-eye" x="21" y="49" width="7" height="7"/><rect class="lg-eye" x="56" y="49" width="7" height="7"/></g></g><g class="m-front"><g class="lg-e"><rect class="lg-ant" x="42" y="14" width="7" height="7"/><rect class="lg-ant" x="35" y="21" width="7" height="7"/><rect x="14" y="28" width="56" height="7"/><rect x="7" y="35" width="70" height="7"/><rect x="7" y="42" width="14" height="7"/><rect x="28" y="42" width="28" height="7"/><rect x="63" y="42" width="14" height="7"/><rect x="7" y="49" width="14" height="7"/><rect x="28" y="49" width="28" height="7"/><rect x="63" y="49" width="14" height="7"/><rect x="7" y="56" width="70" height="7"/><rect x="7" y="63" width="70" height="7"/><rect x="7" y="70" width="70" height="7"/><rect x="14" y="77" width="14" height="7"/><rect x="56" y="77" width="14" height="7"/><rect x="21" y="42" width="7" height="14"/><rect x="56" y="42" width="7" height="14"/></g><rect class="lg-front lg-ant" x="42" y="14" width="7" height="7"/><rect class="lg-front lg-ant" x="35" y="21" width="7" height="7"/><rect class="lg-front" x="14" y="28" width="56" height="7"/><rect class="lg-front" x="7" y="35" width="70" height="7"/><rect class="lg-front" x="7" y="42" width="14" height="7"/><rect class="lg-front" x="28" y="42" width="28" height="7"/><rect class="lg-front" x="63" y="42" width="14" height="7"/><rect class="lg-front" x="7" y="49" width="14" height="7"/><rect class="lg-front" x="28" y="49" width="28" height="7"/><rect class="lg-front" x="63" y="49" width="14" height="7"/><rect class="lg-front" x="7" y="56" width="70" height="7"/><rect class="lg-front" x="7" y="63" width="70" height="7"/><rect class="lg-front" x="7" y="70" width="70" height="7"/><rect class="lg-front" x="14" y="77" width="14" height="7"/><rect class="lg-front" x="56" y="77" width="14" height="7"/><rect class="lg-front" x="21" y="42" width="7" height="14"/><rect class="lg-front" x="56" y="42" width="7" height="14"/><rect class="lg-eye" x="21" y="42" width="7" height="7"/><rect class="lg-eye" x="56" y="42" width="7" height="7"/><rect class="lg-eye" x="21" y="49" width="7" height="7"/><rect class="lg-eye" x="56" y="49" width="7" height="7"/></g></svg>
